<svg width="107" height="30" viewBox="0 0 107 30" fill="none" xmlns="http://www.w3.org/2000/svg">
<path d="M70.7755 0.802979V21.5578C73.3355 21.6769 75.8888 21.8208 78.435 21.9907V26.3911C74.3967 26.1218 70.3543 25.9175 66.3094 25.7782V0.802979H70.7755ZM106.265 0.805464L100.45 14.2882L106.264 29.2921L106.257 29.2948C104.562 29.0536 102.865 28.8242 101.167 28.6065L97.9021 20.1856L94.6061 27.8248C93.0439 27.6523 91.4799 27.4893 89.9122 27.336L95.5814 14.1979L90.3894 0.805671H95.2206L98.1277 8.30037L101.36 0.805464H106.265ZM50.9815 25.5601V0.805257H63.4485V5.24524H55.4476V10.9992H61.5013V15.3997H55.4476V25.5593L50.9815 25.5601ZM34.3051 5.24545V0.80505H48.1184V5.24524H43.4446V25.6804C41.9539 25.7198 40.4648 25.7658 38.9789 25.8219V5.24545H34.3051ZM19.0373 27.1011V0.805878H31.4421V5.24566H23.5027V11.2598C25.3267 11.2364 27.9202 11.2101 29.5337 11.2138V15.6147C27.514 15.5898 25.2341 15.6424 23.5027 15.6596V22.3217C26.1473 22.1133 28.7939 21.9324 31.4421 21.779V26.1798C27.3024 26.4186 23.1669 26.7259 19.0373 27.1015V27.1011ZM10.2764 16.9287L10.2762 0.80505H14.7423V27.5162C13.1097 27.684 11.48 27.8627 9.85346 28.0514L4.68169 13.1942V28.6877C3.19017 28.882 1.70155 29.0844 0.21582 29.2958V0.805464H4.46007L10.2762 16.9287H10.2764ZM82.1194 26.6564V0.805464H86.5857V27.0253C85.0987 26.8928 83.6105 26.7705 82.1194 26.6566V26.6564Z" fill="#DB202C"/>
</svg>
