<svg width="22" height="24" viewBox="0 0 22 24" fill="none" xmlns="http://www.w3.org/2000/svg">
<path d="M11 24C11.7956 24 12.5587 23.6839 13.1213 23.1213C13.6839 22.5587 14 21.7956 14 21H8C8 21.7956 8.31607 22.5587 8.87868 23.1213C9.44129 23.6839 10.2044 24 11 24ZM12.4925 1.64848C12.5134 1.43991 12.4904 1.22927 12.4249 1.03014C12.3595 0.831011 12.253 0.647816 12.1124 0.492368C11.9717 0.336921 11.8001 0.212673 11.6085 0.127638C11.4169 0.0426029 11.2096 -0.00133133 11 -0.00133133C10.7904 -0.00133133 10.5831 0.0426029 10.3915 0.127638C10.1999 0.212673 10.0283 0.336921 9.88763 0.492368C9.74701 0.647816 9.64052 0.831011 9.57505 1.03014C9.50958 1.22927 9.48656 1.43991 9.5075 1.64848C7.81208 1.99333 6.28793 2.91352 5.19315 4.25323C4.09836 5.59294 3.50022 7.26984 3.5 8.99998C3.5 10.647 2.75 18 0.5 19.5H21.5C19.25 18 18.5 10.647 18.5 8.99998C18.5 5.36998 15.92 2.33998 12.4925 1.64848Z" fill="white"/>
</svg>
